ffmpeg started on 2025-06-07 at 14:57:48
Report written to "D:\Convert\FFMetrics\reports\psnr_report-6.txt"
Log level: 32
Command line:
ffmpeg -hide_banner -nostdin -i "G:\\\xc0\xed\xe8\xec\xe5\\\xce\xed\xe3\xee\xe8\xed\xe3\xe8\\!_36_\xce\xf1\xe5\xed\xfc_2024\\DreamCast\\\xd1\xee\xe1\xeb\xe0\xe7\xed 2,5-\xec\xe5\xf0\xed\xee\xe3\xee \xe8\xe7\xec\xe5\xf0\xe5\xed\xe8\xff\\[DC] 2-5 Jigen no Ririsa - 03_Telegram_HEVC.mkv" -i "G:\\\xc0\xed\xe8\xec\xe5\\\xce\xed\xe3\xee\xe8\xed\xe3\xe8\\!_36_\xce\xf1\xe5\xed\xfc_2024\\DreamCast\\\xd1\xee\xe1\xeb\xe0\xe7\xed 2,5-\xec\xe5\xf0\xed\xee\xe3\xee \xe8\xe7\xec\xe5\xf0\xe5\xed\xe8\xff\\[DC] 2-5 Jigen no Ririsa - 03_Telegram.mp4" -lavfi "[0:v]settb=AVTB,setpts=PTS-STARTPTS,format=pix_fmts=yuv420p10,fps=24/1,scale=1920:1080:flags=bicubic[main];[1:v]settb=AVTB,setpts=PTS-STARTPTS,format=pix_fmts=yuv420p,fps=24/1,scale=1920:1080:flags=bicubic[ref];[main][ref]psnr=eof_action=endall:stats_file='D\\:/Convert/FFMetrics/logs/psnr_logfile-6.txt'" -f null -
Input #0, matroska,webm, from 'G:\Аниме\Онгоинги\!_36_Осень_2024\DreamCast\Соблазн 2,5-мерного измерения\[DC] 2-5 Jigen no Ririsa - 03_Telegram_HEVC.mkv':
  Metadata:
    COMPATIBLE_BRANDS: isomiso2avc1mp41
    MAJOR_BRAND     : isom
    MINOR_VERSION   : 512
    ENCODER         : Lavf61.7.100
  Duration: 00:24:09.13, start: -0.021000, bitrate: 1266 kb/s
  Stream #0:0: Video: hevc (Main 10), yuv420p10le(tv, bt709, progressive), 1920x1080 [SAR 1:1 DAR 16:9], 24 fps, 24 tbr, 1k tbn (default)
      Metadata:
        HANDLER_NAME    : VideoHandler
        VENDOR_ID       : [0][0][0][0]
        ENCODER         : Lavc61.19.100 libx265
        BPS             : 1069872
        DURATION        : 00:24:08.999666666
        NUMBER_OF_FRAMES: 34776
        NUMBER_OF_BYTES : 193780562
        _STATISTICS_WRITING_APP: mkvpropedit v66.0.0 ('Josie') 64-bit
        _STATISTICS_WRITING_DATE_UTC: 2025-06-04 09:45:17
        _STATISTICS_TAGS: BPS DURATION NUMBER_OF_FRAMES NUMBER_OF_BYTES
  Stream #0:1: Audio: aac (LC), 48000 Hz, stereo, fltp (default)
      Metadata:
        HANDLER_NAME    : SoundHandler
        VENDOR_ID       : [0][0][0][0]
        ENCODER         : Lavc61.19.100 aac
        BPS             : 193018
        DURATION        : 00:24:09.130000000
        NUMBER_OF_FRAMES: 67929
        NUMBER_OF_BYTES : 34963661
        _STATISTICS_WRITING_APP: mkvpropedit v66.0.0 ('Josie') 64-bit
        _STATISTICS_WRITING_DATE_UTC: 2025-06-04 09:45:17
        _STATISTICS_TAGS: BPS DURATION NUMBER_OF_FRAMES NUMBER_OF_BYTES
Input #1, mov,mp4,m4a,3gp,3g2,mj2, from 'G:\Аниме\Онгоинги\!_36_Осень_2024\DreamCast\Соблазн 2,5-мерного измерения\[DC] 2-5 Jigen no Ririsa - 03_Telegram.mp4':
  Metadata:
    major_brand     : isom
    minor_version   : 512
    compatible_brands: isomiso2avc1mp41
    encoder         : Lavf61.1.100
  Duration: 00:24:09.07, start: 0.000000, bitrate: 3617 kb/s
  Stream #1:0[0x1](und): Video: h264 (High) (avc1 / 0x31637661), yuv420p(tv, bt709, progressive), 1920x1080 [SAR 1:1 DAR 16:9], 3469 kb/s, 24 fps, 24 tbr, 12288 tbn (default)
      Metadata:
        handler_name    : VideoHandler
        vendor_id       : [0][0][0][0]
        encoder         : Lavc61.3.100 h264_qsv
  Stream #1:1[0x2](und): Audio: aac (HE-AACv2) (mp4a / 0x6134706D), 48000 Hz, stereo, fltp, 144 kb/s (default)
      Metadata:
        handler_name    : SoundHandler
        vendor_id       : [0][0][0][0]
Stream mapping:
  Stream #0:0 (hevc) -> settb:default
  Stream #1:0 (h264) -> settb:default
  psnr:default -> Stream #0:0 (wrapped_avframe)
  Stream #0:1 -> #0:1 (aac (native) -> pcm_s16le (native))
Output #0, null, to 'pipe:':
  Metadata:
    COMPATIBLE_BRANDS: isomiso2avc1mp41
    MAJOR_BRAND     : isom
    MINOR_VERSION   : 512
    encoder         : Lavf61.7.100
  Stream #0:0: Video: wrapped_avframe, yuv420p10le(tv, bt709, progressive), 1920x1080 [SAR 1:1 DAR 16:9], q=2-31, 200 kb/s, 24 fps, 24 tbn
      Metadata:
        encoder         : Lavc61.19.100 wrapped_avframe
  Stream #0:1: Audio: pcm_s16le, 48000 Hz, stereo, s16, 1536 kb/s (default)
      Metadata:
        HANDLER_NAME    : SoundHandler
        VENDOR_ID       : [0][0][0][0]
        _STATISTICS_TAGS: BPS DURATION NUMBER_OF_FRAMES NUMBER_OF_BYTES
        BPS             : 193018
        DURATION        : 00:24:09.130000000
        NUMBER_OF_FRAMES: 67929
        NUMBER_OF_BYTES : 34963661
        _STATISTICS_WRITING_APP: mkvpropedit v66.0.0 ('Josie') 64-bit
        _STATISTICS_WRITING_DATE_UTC: 2025-06-04 09:45:17
        encoder         : Lavc61.19.100 pcm_s16le
frame=  179 fps=0.0 q=-0.0 size=N/A time=00:00:07.45 bitrate=N/A speed=14.5x    frame=  360 fps=347 q=-0.0 size=N/A time=00:00:15.00 bitrate=N/A speed=14.5x    frame=  606 fps=392 q=-0.0 size=N/A time=00:00:25.25 bitrate=N/A speed=16.3x    frame=  854 fps=413 q=-0.0 size=N/A time=00:00:35.58 bitrate=N/A speed=17.2x    frame= 1075 fps=417 q=-0.0 size=N/A time=00:00:44.79 bitrate=N/A speed=17.4x    frame= 1211 fps=391 q=-0.0 size=N/A time=00:00:50.45 bitrate=N/A speed=16.3x    frame= 1465 fps=406 q=-0.0 size=N/A time=00:01:01.04 bitrate=N/A speed=16.9x    frame= 1714 fps=415 q=-0.0 size=N/A time=00:01:11.41 bitrate=N/A speed=17.3x    frame= 1938 fps=418 q=-0.0 size=N/A time=00:01:20.75 bitrate=N/A speed=17.4x    frame= 2142 fps=415 q=-0.0 size=N/A time=00:01:29.25 bitrate=N/A speed=17.3x    frame= 2332 fps=411 q=-0.0 size=N/A time=00:01:37.16 bitrate=N/A speed=17.1x    frame= 2546 fps=411 q=-0.0 size=N/A time=00:01:46.08 bitrate=N/A speed=17.1x    frame= 2740 fps=408 q=-0.0 size=N/A time=00:01:54.16 bitrate=N/A speed=  17x    frame= 2918 fps=404 q=-0.0 size=N/A time=00:02:01.58 bitrate=N/A speed=16.8x    frame= 3138 fps=405 q=-0.0 size=N/A time=00:02:10.75 bitrate=N/A speed=16.9x    frame= 3333 fps=404 q=-0.0 size=N/A time=00:02:18.87 bitrate=N/A speed=16.8x    frame= 3533 fps=403 q=-0.0 size=N/A time=00:02:27.20 bitrate=N/A speed=16.8x    frame= 3728 fps=401 q=-0.0 size=N/A time=00:02:35.33 bitrate=N/A speed=16.7x    frame= 3927 fps=400 q=-0.0 size=N/A time=00:02:43.62 bitrate=N/A speed=16.7x    frame= 4140 fps=401 q=-0.0 size=N/A time=00:02:52.50 bitrate=N/A speed=16.7x    frame= 4385 fps=405 q=-0.0 size=N/A time=00:03:02.70 bitrate=N/A speed=16.9x    frame= 4635 fps=409 q=-0.0 size=N/A time=00:03:13.12 bitrate=N/A speed=  17x    frame= 4861 fps=410 q=-0.0 size=N/A time=00:03:22.54 bitrate=N/A speed=17.1x    frame= 5108 fps=413 q=-0.0 size=N/A time=00:03:32.83 bitrate=N/A speed=17.2x    frame= 5379 fps=417 q=-0.0 size=N/A time=00:03:44.12 bitrate=N/A speed=17.4x    frame= 5636 fps=420 q=-0.0 size=N/A time=00:03:54.83 bitrate=N/A speed=17.5x    frame= 5873 fps=422 q=-0.0 size=N/A time=00:04:04.70 bitrate=N/A speed=17.6x    frame= 6155 fps=426 q=-0.0 size=N/A time=00:04:16.45 bitrate=N/A speed=17.8x    frame= 6394 fps=427 q=-0.0 size=N/A time=00:04:26.41 bitrate=N/A speed=17.8x    frame= 6648 fps=430 q=-0.0 size=N/A time=00:04:37.00 bitrate=N/A speed=17.9x    frame= 6902 fps=432 q=-0.0 size=N/A time=00:04:47.58 bitrate=N/A speed=  18x    frame= 7102 fps=430 q=-0.0 size=N/A time=00:04:55.91 bitrate=N/A speed=17.9x    frame= 7363 fps=433 q=-0.0 size=N/A time=00:05:06.79 bitrate=N/A speed=  18x    frame= 7611 fps=434 q=-0.0 size=N/A time=00:05:17.12 bitrate=N/A speed=18.1x    frame= 7791 fps=432 q=-0.0 size=N/A time=00:05:24.62 bitrate=N/A speed=  18x    frame= 8029 fps=433 q=-0.0 size=N/A time=00:05:34.54 bitrate=N/A speed=  18x    frame= 8297 fps=435 q=-0.0 size=N/A time=00:05:45.70 bitrate=N/A speed=18.1x    frame= 8567 fps=437 q=-0.0 size=N/A time=00:05:56.95 bitrate=N/A speed=18.2x    frame= 8842 fps=440 q=-0.0 size=N/A time=00:06:08.41 bitrate=N/A speed=18.3x    frame= 9120 fps=442 q=-0.0 size=N/A time=00:06:20.00 bitrate=N/A speed=18.4x    frame= 9379 fps=444 q=-0.0 size=N/A time=00:06:30.79 bitrate=N/A speed=18.5x    frame= 9642 fps=445 q=-0.0 size=N/A time=00:06:41.75 bitrate=N/A speed=18.5x    frame= 9877 fps=446 q=-0.0 size=N/A time=00:06:51.54 bitrate=N/A speed=18.6x    frame=10135 fps=447 q=-0.0 size=N/A time=00:07:02.29 bitrate=N/A speed=18.6x    frame=10346 fps=446 q=-0.0 size=N/A time=00:07:11.08 bitrate=N/A speed=18.6x    frame=10610 fps=447 q=-0.0 size=N/A time=00:07:22.08 bitrate=N/A speed=18.6x    frame=10885 fps=449 q=-0.0 size=N/A time=00:07:33.54 bitrate=N/A speed=18.7x    frame=11168 fps=451 q=-0.0 size=N/A time=00:07:45.33 bitrate=N/A speed=18.8x    frame=11423 fps=452 q=-0.0 size=N/A time=00:07:55.95 bitrate=N/A speed=18.8x    frame=11691 fps=453 q=-0.0 size=N/A time=00:08:07.12 bitrate=N/A speed=18.9x    frame=11955 fps=455 q=-0.0 size=N/A time=00:08:18.12 bitrate=N/A speed=18.9x    frame=12199 fps=455 q=-0.0 size=N/A time=00:08:28.29 bitrate=N/A speed=  19x    frame=12442 fps=455 q=-0.0 size=N/A time=00:08:38.41 bitrate=N/A speed=  19x    frame=12711 fps=456 q=-0.0 size=N/A time=00:08:49.62 bitrate=N/A speed=  19x    frame=12970 fps=457 q=-0.0 size=N/A time=00:09:00.41 bitrate=N/A speed=19.1x    frame=13210 fps=457 q=-0.0 size=N/A time=00:09:10.41 bitrate=N/A speed=19.1x    frame=13432 fps=457 q=-0.0 size=N/A time=00:09:19.66 bitrate=N/A speed=  19x    frame=13641 fps=456 q=-0.0 size=N/A time=00:09:28.37 bitrate=N/A speed=  19x    frame=13871 fps=456 q=-0.0 size=N/A time=00:09:37.95 bitrate=N/A speed=  19x    frame=14121 fps=456 q=-0.0 size=N/A time=00:09:48.37 bitrate=N/A speed=  19x    frame=14367 fps=457 q=-0.0 size=N/A time=00:09:58.62 bitrate=N/A speed=  19x    frame=14603 fps=457 q=-0.0 size=N/A time=00:10:08.45 bitrate=N/A speed=  19x    frame=14830 fps=456 q=-0.0 size=N/A time=00:10:17.91 bitrate=N/A speed=  19x    frame=15045 fps=456 q=-0.0 size=N/A time=00:10:26.87 bitrate=N/A speed=  19x    frame=15295 fps=456 q=-0.0 size=N/A time=00:10:37.29 bitrate=N/A speed=  19x    frame=15498 fps=455 q=-0.0 size=N/A time=00:10:45.75 bitrate=N/A speed=  19x    frame=15711 fps=455 q=-0.0 size=N/A time=00:10:54.62 bitrate=N/A speed=  19x    frame=15967 fps=455 q=-0.0 size=N/A time=00:11:05.29 bitrate=N/A speed=  19x    frame=16176 fps=455 q=-0.0 size=N/A time=00:11:14.00 bitrate=N/A speed=18.9x    frame=16415 fps=455 q=-0.0 size=N/A time=00:11:23.95 bitrate=N/A speed=18.9x    frame=16664 fps=455 q=-0.0 size=N/A time=00:11:34.33 bitrate=N/A speed=  19x    frame=16915 fps=456 q=-0.0 size=N/A time=00:11:44.79 bitrate=N/A speed=  19x    frame=17158 fps=456 q=-0.0 size=N/A time=00:11:54.91 bitrate=N/A speed=  19x    frame=17418 fps=456 q=-0.0 size=N/A time=00:12:05.75 bitrate=N/A speed=  19x    frame=17643 fps=456 q=-0.0 size=N/A time=00:12:15.12 bitrate=N/A speed=  19x    frame=17878 fps=456 q=-0.0 size=N/A time=00:12:24.91 bitrate=N/A speed=  19x    frame=18112 fps=456 q=-0.0 size=N/A time=00:12:34.66 bitrate=N/A speed=  19x    frame=18358 fps=456 q=-0.0 size=N/A time=00:12:44.91 bitrate=N/A speed=  19x    frame=18614 fps=457 q=-0.0 size=N/A time=00:12:55.58 bitrate=N/A speed=  19x    frame=18871 fps=457 q=-0.0 size=N/A time=00:13:06.29 bitrate=N/A speed=19.1x    frame=19148 fps=458 q=-0.0 size=N/A time=00:13:17.83 bitrate=N/A speed=19.1x    frame=19360 fps=458 q=-0.0 size=N/A time=00:13:26.66 bitrate=N/A speed=19.1x    frame=19581 fps=458 q=-0.0 size=N/A time=00:13:35.87 bitrate=N/A speed=19.1x    frame=19783 fps=457 q=-0.0 size=N/A time=00:13:44.29 bitrate=N/A speed=  19x    frame=20003 fps=456 q=-0.0 size=N/A time=00:13:53.45 bitrate=N/A speed=  19x    frame=20227 fps=456 q=-0.0 size=N/A time=00:14:02.79 bitrate=N/A speed=  19x    frame=20491 fps=457 q=-0.0 size=N/A time=00:14:13.79 bitrate=N/A speed=  19x    frame=20722 fps=457 q=-0.0 size=N/A time=00:14:23.41 bitrate=N/A speed=  19x    frame=20966 fps=457 q=-0.0 size=N/A time=00:14:33.58 bitrate=N/A speed=  19x    frame=21147 fps=456 q=-0.0 size=N/A time=00:14:41.12 bitrate=N/A speed=  19x    frame=21390 fps=456 q=-0.0 size=N/A time=00:14:51.25 bitrate=N/A speed=  19x    frame=21627 fps=456 q=-0.0 size=N/A time=00:15:01.12 bitrate=N/A speed=  19x    frame=21846 fps=456 q=-0.0 size=N/A time=00:15:10.25 bitrate=N/A speed=  19x    frame=22078 fps=455 q=-0.0 size=N/A time=00:15:19.91 bitrate=N/A speed=  19x    frame=22336 fps=456 q=-0.0 size=N/A time=00:15:30.66 bitrate=N/A speed=  19x    frame=22589 fps=456 q=-0.0 size=N/A time=00:15:41.20 bitrate=N/A speed=  19x    frame=22834 fps=457 q=-0.0 size=N/A time=00:15:51.41 bitrate=N/A speed=  19x    frame=23064 fps=456 q=-0.0 size=N/A time=00:16:01.00 bitrate=N/A speed=  19x    frame=23330 fps=457 q=-0.0 size=N/A time=00:16:12.08 bitrate=N/A speed=  19x    frame=23541 fps=457 q=-0.0 size=N/A time=00:16:20.91 bitrate=N/A speed=  19x    frame=23790 fps=457 q=-0.0 size=N/A time=00:16:31.25 bitrate=N/A speed=  19x    frame=24052 fps=457 q=-0.0 size=N/A time=00:16:42.16 bitrate=N/A speed=19.1x    frame=24329 fps=458 q=-0.0 size=N/A time=00:16:53.70 bitrate=N/A speed=19.1x    frame=24579 fps=458 q=-0.0 size=N/A time=00:17:04.12 bitrate=N/A speed=19.1x    frame=24827 fps=459 q=-0.0 size=N/A time=00:17:14.45 bitrate=N/A speed=19.1x    frame=25064 fps=459 q=-0.0 size=N/A time=00:17:24.33 bitrate=N/A speed=19.1x    frame=25266 fps=458 q=-0.0 size=N/A time=00:17:32.75 bitrate=N/A speed=19.1x    frame=25471 fps=457 q=-0.0 size=N/A time=00:17:41.29 bitrate=N/A speed=19.1x    frame=25710 fps=457 q=-0.0 size=N/A time=00:17:51.25 bitrate=N/A speed=19.1x    frame=25953 fps=458 q=-0.0 size=N/A time=00:18:01.37 bitrate=N/A speed=19.1x    frame=26127 fps=456 q=-0.0 size=N/A time=00:18:08.62 bitrate=N/A speed=  19x    frame=26389 fps=457 q=-0.0 size=N/A time=00:18:19.54 bitrate=N/A speed=  19x    frame=26639 fps=457 q=-0.0 size=N/A time=00:18:29.95 bitrate=N/A speed=  19x    frame=26897 fps=458 q=-0.0 size=N/A time=00:18:40.70 bitrate=N/A speed=19.1x    frame=27144 fps=458 q=-0.0 size=N/A time=00:18:51.00 bitrate=N/A speed=19.1x    frame=27414 fps=458 q=-0.0 size=N/A time=00:19:02.25 bitrate=N/A speed=19.1x    frame=27682 fps=459 q=-0.0 size=N/A time=00:19:13.41 bitrate=N/A speed=19.1x    frame=27921 fps=459 q=-0.0 size=N/A time=00:19:23.37 bitrate=N/A speed=19.1x    frame=28182 fps=459 q=-0.0 size=N/A time=00:19:34.25 bitrate=N/A speed=19.1x    frame=28454 fps=460 q=-0.0 size=N/A time=00:19:45.58 bitrate=N/A speed=19.2x    frame=28720 fps=460 q=-0.0 size=N/A time=00:19:56.66 bitrate=N/A speed=19.2x    frame=29002 fps=461 q=-0.0 size=N/A time=00:20:08.41 bitrate=N/A speed=19.2x    frame=29282 fps=462 q=-0.0 size=N/A time=00:20:20.08 bitrate=N/A speed=19.2x    frame=29540 fps=462 q=-0.0 size=N/A time=00:20:30.83 bitrate=N/A speed=19.2x    frame=29812 fps=462 q=-0.0 size=N/A time=00:20:42.16 bitrate=N/A speed=19.3x    frame=30088 fps=463 q=-0.0 size=N/A time=00:20:53.66 bitrate=N/A speed=19.3x    frame=30370 fps=464 q=-0.0 size=N/A time=00:21:05.41 bitrate=N/A speed=19.3x    frame=30638 fps=464 q=-0.0 size=N/A time=00:21:16.58 bitrate=N/A speed=19.3x    frame=30899 fps=465 q=-0.0 size=N/A time=00:21:27.45 bitrate=N/A speed=19.4x    frame=31151 fps=465 q=-0.0 size=N/A time=00:21:37.95 bitrate=N/A speed=19.4x    frame=31419 fps=465 q=-0.0 size=N/A time=00:21:49.12 bitrate=N/A speed=19.4x    frame=31701 fps=466 q=-0.0 size=N/A time=00:22:00.87 bitrate=N/A speed=19.4x    frame=31976 fps=466 q=-0.0 size=N/A time=00:22:12.33 bitrate=N/A speed=19.4x    frame=32249 fps=467 q=-0.0 size=N/A time=00:22:23.70 bitrate=N/A speed=19.4x    frame=32510 fps=467 q=-0.0 size=N/A time=00:22:34.58 bitrate=N/A speed=19.5x    frame=32734 fps=467 q=-0.0 size=N/A time=00:22:43.91 bitrate=N/A speed=19.4x    frame=32943 fps=466 q=-0.0 size=N/A time=00:22:52.62 bitrate=N/A speed=19.4x    frame=33114 fps=465 q=-0.0 size=N/A time=00:22:59.75 bitrate=N/A speed=19.4x    frame=33315 fps=465 q=-0.0 size=N/A time=00:23:08.12 bitrate=N/A speed=19.4x    frame=33508 fps=464 q=-0.0 size=N/A time=00:23:16.16 bitrate=N/A speed=19.3x    frame=33692 fps=463 q=-0.0 size=N/A time=00:23:23.83 bitrate=N/A speed=19.3x    frame=33927 fps=463 q=-0.0 size=N/A time=00:23:33.62 bitrate=N/A speed=19.3x    frame=34128 fps=463 q=-0.0 size=N/A time=00:23:42.00 bitrate=N/A speed=19.3x    frame=34308 fps=462 q=-0.0 size=N/A time=00:23:49.50 bitrate=N/A speed=19.3x    frame=34473 fps=461 q=-0.0 size=N/A time=00:23:56.37 bitrate=N/A speed=19.2x    frame=34702 fps=461 q=-0.0 size=N/A time=00:24:05.91 bitrate=N/A speed=19.2x    [Parsed_psnr_10 @ 000002272c2e39c0] PSNR y:47.813187 u:50.555351 v:49.998919 average:48.488123 min:42.294216 max:inf
[out#0/null @ 0000022725524a40] video:14943KiB audio:271716KiB subtitle:0KiB other streams:0KiB global headers:0KiB muxing overhead: unknown
frame=34776 fps=461 q=-0.0 Lsize=N/A time=00:24:09.00 bitrate=N/A speed=19.2x    
